<svg width="52" height="53" xmlns="http://www.w3.org/2000/svg" xmlns:xlink="http://www.w3.org/1999/xlink" xml:space="preserve" overflow="hidden"><defs><clipPath id="clip0"><rect x="710" y="266" width="52" height="53"/></clipPath></defs><g clip-path="url(#clip0)" transform="translate(-710 -266)"><path d="M4.33333 18.9583 4.33333 33.0417 15.1667 33.0417 28.7083 44.4167 28.7083 7.58333 15.1667 18.9583 4.33333 18.9583Z" stroke="#000000" stroke-width="2" fill="#FFFFFF" transform="matrix(1 0 0 1.01923 710 266)"/><path d="M39 29.7321 33.0308 35.7013 30.3821 33.0525 36.3513 27.0833 30.3821 21.1142 33.0308 18.4654 39 24.4346 44.9692 18.4654 47.6179 21.1142 41.6488 27.0833 47.6179 33.0525 44.9692 35.7013 39 29.7321Z" stroke="#000000" stroke-width="2" fill="#FFFFFF" transform="matrix(1 0 0 1.01923 710 266)"/></g></svg>